<svg xmlns="http://www.w3.org/2000/svg" width="784" height="345" viewBox="0 0 784 345"><rect width="100%" height="100%" fill="#DDDDDD"/><path fill="#999999" d="M160.91 134.905h51.95v5.56q0 2.5-.52 4.03-.52 1.54-1.04 2.58l-28.49 58.65q-.89 1.82-2.5 3.1-1.61 1.27-4.32 1.27h-9.3l29.06-57.46q.99-1.77 1.95-3.25.97-1.48 2.16-2.83h-35.98q-1.2 0-2.08-.89-.89-.88-.89-2.08v-8.68Zm85.65 65.99q3.17 0 5.56-.91 2.39-.91 4.03-2.53 1.64-1.61 2.47-3.84.83-2.24.83-4.84 0-6.19-3.43-9.36-3.43-3.17-9.46-3.17-6.03 0-9.47 3.17-3.43 3.17-3.43 9.36 0 2.6.83 4.84.84 2.23 2.47 3.84 1.64 1.62 4.03 2.53 2.4.91 5.57.91Zm0-57.15q-2.86 0-4.94.88-2.08.89-3.46 2.37t-2.03 3.4q-.65 1.93-.65 4.06 0 2.24.55 4.34.54 2.11 1.84 3.75 1.3 1.63 3.44 2.62 2.13.99 5.25.99t5.25-.99q2.13-.99 3.43-2.62 1.3-1.64 1.85-3.75.54-2.1.54-4.34 0-2.13-.67-4.06-.68-1.92-2.03-3.4-1.35-1.48-3.43-2.37-2.08-.88-4.94-.88Zm12.69 27.14q6.86 2.24 10.14 6.84 3.27 4.6 3.27 11.26 0 4.99-1.9 9.05-1.89 4.05-5.33 6.91-3.43 2.86-8.24 4.42-4.81 1.56-10.63 1.56-5.83 0-10.64-1.56-4.81-1.56-8.24-4.42-3.43-2.86-5.33-6.91-1.9-4.06-1.9-9.05 0-6.66 3.28-11.26t10.14-6.84q-5.46-2.29-8.19-6.5-2.73-4.21-2.73-10.14 0-4.26 1.74-7.95 1.74-3.7 4.86-6.43 3.12-2.73 7.47-4.26 4.34-1.53 9.54-1.53 5.2 0 9.54 1.53 4.34 1.53 7.46 4.26 3.12 2.73 4.86 6.43 1.75 3.69 1.75 7.95 0 5.93-2.73 10.14-2.73 4.21-8.19 6.5Zm31.61 10.87h22.88v-24.6q0-3.48.47-7.69l-23.35 32.29Zm34.06 0h9.47v7.44q0 1.04-.68 1.79t-1.92.75h-6.87v18.36h-11.18v-18.36h-31.72q-1.3 0-2.29-.8-.98-.81-1.24-2l-1.36-6.5 35.62-47.58h12.17v46.9Zm92.09 11.13-6.81 6.71-17.63-17.63-17.78 17.73-6.81-6.71 17.78-17.83-16.95-16.96 6.76-6.76 16.95 16.96 16.85-16.85 6.86 6.76-16.9 16.9 17.68 17.68Zm43.27-35.83-6.76-1.2q.78-5.4 3.01-9.49 2.24-4.08 5.59-6.81 3.36-2.73 7.7-4.11 4.34-1.37 9.33-1.37 5.2 0 9.39 1.48t7.15 4.11q2.96 2.62 4.55 6.16 1.59 3.53 1.59 7.64 0 3.59-.81 6.32-.81 2.73-2.31 4.76-1.51 2.03-3.75 3.43-2.23 1.4-5.04 2.34 6.76 2.13 10.09 6.5 3.32 4.37 3.32 10.97 0 5.62-2.08 9.93-2.08 4.32-5.61 7.26-3.54 2.94-8.19 4.44-4.66 1.51-9.86 1.51-5.66 0-9.88-1.3-4.21-1.3-7.33-3.85-3.12-2.54-5.3-6.24-2.19-3.69-3.75-8.52l5.67-2.34q2.24-.94 4.19-.5 1.95.44 2.83 2.11.94 1.82 2.06 3.59 1.11 1.76 2.67 3.14 1.56 1.38 3.67 2.24 2.11.86 5.02.86 3.27 0 5.72-1.07 2.44-1.07 4.08-2.78 1.64-1.72 2.44-3.82.81-2.11.81-4.24 0-2.71-.57-4.92t-2.39-3.77q-1.82-1.56-5.23-2.44-3.41-.88-9.13-.88v-9.16q4.74-.05 7.86-.88t4.96-2.31q1.85-1.49 2.58-3.57.72-2.08.72-4.57 0-5.31-2.96-8.06-2.96-2.76-7.9-2.76-2.29 0-4.22.65-1.92.65-3.45 1.82-1.54 1.17-2.58 2.73t-1.56 3.43q-.88 2.4-2.31 3.18-1.43.78-4.03.36Zm62.09 24.7h22.88v-24.6q0-3.48.46-7.69l-23.34 32.29Zm34.06 0h9.46v7.44q0 1.04-.68 1.79-.67.75-1.92.75h-6.86v18.36h-11.18v-18.36h-31.72q-1.3 0-2.29-.8-.99-.81-1.25-2l-1.35-6.5 35.62-47.58h12.17v46.9Zm35.88-35.2-2.66 15.65q2.5-.52 4.79-.76 2.29-.23 4.42-.23 5.93 0 10.45 1.77t7.59 4.89q3.07 3.12 4.63 7.3 1.56 4.19 1.56 9.02 0 5.98-2.11 10.92-2.1 4.94-5.85 8.45-3.74 3.51-8.86 5.44-5.12 1.92-11.16 1.92-3.53 0-6.7-.73-3.18-.72-5.96-1.95-2.78-1.22-5.15-2.8-2.36-1.59-4.23-3.36l3.95-5.46q1.25-1.77 3.27-1.77 1.3 0 2.66.84 1.35.83 3.09 1.82 1.74.98 4.11 1.82 2.36.83 5.69.83 3.54 0 6.24-1.15 2.71-1.14 4.5-3.19 1.79-2.06 2.7-4.89.91-2.84.91-6.16 0-6.14-3.56-9.6t-10.53-3.46q-5.35 0-10.97 1.98l-8.01-2.29 6.24-36.5h37.13v5.46q0 2.75-1.72 4.47-1.71 1.72-5.82 1.72h-20.64Z"/></svg>